<svg width="24" height="36" viewBox="0 0 24 36" fill="none" xmlns="http://www.w3.org/2000/svg">
<path id="Next" d="M13.5 1.92981C13.5 1.10138 12.8284 0.42981 12 0.42981C11.1716 0.42981 10.5 1.10138 10.5 1.92981L13.5 1.92981ZM10.9393 35.1267C11.5251 35.7125 12.4749 35.7125 13.0607 35.1267L22.6066 25.5808C23.1924 24.995 23.1924 24.0452 22.6066 23.4595C22.0208 22.8737 21.0711 22.8737 20.4853 23.4595L12 31.9447L3.51472 23.4595C2.92893 22.8737 1.97919 22.8737 1.3934 23.4595C0.807611 24.0452 0.807611 24.995 1.3934 25.5808L10.9393 35.1267ZM10.5 1.92981L10.5 34.0661H13.5L13.5 1.92981L10.5 1.92981Z" fill="black"/>
</svg>
